<?xml version="1.0" encoding="utf-8"?>
<!-- Generator: Adobe Illustrator 13.0.0, SVG Export Plug-In . SVG Version: 6.00 Build 14948)  -->
<!DOCTYPE svg PUBLIC "-//W3C//DTD SVG 1.1//EN" "http://www.w3.org/Graphics/SVG/1.1/DTD/svg11.dtd">
<svg version="1.1" xmlns="http://www.w3.org/2000/svg" xmlns:xlink="http://www.w3.org/1999/xlink" x="0px" y="0px" width="595px"
	 height="595px" viewBox="0 0 595 595" enable-background="new 0 0 595 595" xml:space="preserve">
<g id="Слой_3">
	<path d="M500.729,11.829H92.919c-45.542,0-82.594,37.052-82.594,82.595v407.811c0,45.543,37.053,82.596,82.594,82.596h407.81
		c45.543,0,82.595-37.053,82.595-82.596V94.423C583.324,48.881,546.272,11.829,500.729,11.829z"/>
	
		<linearGradient id="SVGID_1_" gradientUnits="userSpaceOnUse" x1="295.9282" y1="-124.4912" x2="295.9282" y2="-231.4951" gradientTransform="matrix(1 0 0 -1 0 342.0029)">
		<stop  offset="0" style="stop-color:#000000"/>
		<stop  offset="0.2467" style="stop-color:#040404"/>
		<stop  offset="0.5165" style="stop-color:#121212"/>
		<stop  offset="0.7817" style="stop-color:#262626"/>
		<stop  offset="0.9001" style="stop-color:#131313"/>
		<stop  offset="0.9949" style="stop-color:#000000"/>
	</linearGradient>
	<path fill="url(#SVGID_1_)" d="M293.272,466.494c-82.866,0-145.497,8.176-186.152,24.297
		c-41.693,16.535-47.919,36.873-47.919,47.523c0,8.902,4.063,17.527,11.44,24.285c7.674,7.027,17.742,10.898,28.35,10.898h395
		c20.867,0,38.571-15.52,38.663-33.889c0.054-10.729-6.176-31.246-48.503-48.111c-41.391-16.492-105.12-24.904-189.418-25.002
		L293.272,466.494L293.272,466.494z"/>
	<linearGradient id="SVGID_2_" gradientUnits="userSpaceOnUse" x1="295.9282" y1="327.4976" x2="295.9282" y2="20.4951">
		<stop  offset="0" style="stop-color:#000000"/>
		<stop  offset="0.156" style="stop-color:#040404"/>
		<stop  offset="0.327" style="stop-color:#121212"/>
		<stop  offset="0.505" style="stop-color:#282828"/>
		<stop  offset="0.6867" style="stop-color:#464646"/>
		<stop  offset="0.7817" style="stop-color:#595959"/>
		<stop  offset="0.8384" style="stop-color:#464646"/>
		<stop  offset="0.9534" style="stop-color:#141414"/>
		<stop  offset="0.9949" style="stop-color:#000000"/>
	</linearGradient>
	<path fill="url(#SVGID_2_)" d="M293.272,327.498c-82.866,0-145.497-23.837-186.152-70.847
		c-41.693-48.21-47.919-107.51-47.919-138.567c0-25.961,4.063-51.109,11.44-70.811c7.674-20.491,17.742-26.778,28.35-26.778h395
		c20.867,0,38.571,40.25,38.663,93.812c0.054,31.283-6.176,91.107-48.503,140.285c-41.391,48.087-105.12,72.616-189.418,72.904
		L293.272,327.498L293.272,327.498z"/>
</g>
<g id="abstract">
	<g>
		<path fill="#FBB03B" d="M354.133,442.75c-0.863,0-1.697-0.447-2.159-1.236c-0.656-1.12-0.347-2.554,0.712-3.303
			c37.559-26.631,54.638-52.621,48.088-73.183c-6.028-18.93-31.607-31.16-65.166-31.16c-53.63,0-115.562,31.756-133.024,102.702
			c-0.18,0.727-0.673,1.334-1.346,1.657c-0.343,0.166-0.711,0.246-1.082,0.246c-0.36,0-0.72-0.076-1.054-0.233
			c-45.793-21.3-72.929-63.281-74.449-115.183c-1.825-62.319,33.196-123.708,87.148-152.759c0.371-0.199,0.777-0.298,1.186-0.298
			c0.455,0,0.91,0.125,1.313,0.373c0.758,0.468,1.211,1.304,1.186,2.197c-1.226,44.146,11.755,81.496,37.54,108.006
			c22.711,23.35,54.901,37.29,86.113,37.29c27.279,0,48.065-10.883,54.247-28.403c4.111-11.647,1.75-26.1-6.827-41.793
			c-10.108-18.491-28.452-38.524-54.524-59.539c-0.936-0.753-1.202-2.066-0.635-3.125c0.442-0.83,1.302-1.321,2.206-1.321
			c0.247,0,0.499,0.036,0.747,0.114c40.073,12.577,73.451,30.645,96.526,52.254c22.51,21.077,35.327,45.508,37.067,70.649
			c1.681,24.271-7.064,49.101-25.289,71.805c-19.401,24.169-48.825,45.703-87.453,64C354.857,442.672,354.493,442.75,354.133,442.75
			L354.133,442.75z"/>
		<path fill="#1A1A1A" d="M212.985,172.5c-2.882,103.758,70.936,147.867,126.151,147.867c59.501,0,97.4-51.209-5.535-134.18
			c160.82,50.471,183.063,177.075,20.53,254.063c89.295-63.31,45.496-108.875-18.524-108.881
			c-51.895-0.005-117.071,29.925-135.453,104.605C89.803,384.647,112.9,226.392,212.985,172.5L212.985,172.5z M212.985,167.5
			c-0.814,0-1.629,0.198-2.371,0.598c-27.563,14.842-50.54,37.886-66.444,66.642c-15.07,27.247-22.89,58.639-22.018,88.393
			c1.549,52.88,29.211,95.662,75.893,117.374c0.668,0.312,1.389,0.467,2.109,0.467c0.739,0,1.478-0.164,2.161-0.491
			c1.349-0.646,2.336-1.862,2.694-3.313c17.142-69.639,77.944-100.805,130.597-100.8c31.951,0.003,57.183,11.826,62.786,29.42
			c2.789,8.758,0.893,18.737-5.638,29.661c-7.769,12.998-21.736,26.698-41.515,40.721c-2.115,1.5-2.733,4.367-1.424,6.604
			c0.925,1.58,2.593,2.476,4.318,2.476c0.719,0,1.448-0.155,2.138-0.482c38.974-18.461,68.693-40.228,88.334-64.695
			c18.624-23.203,27.558-48.633,25.833-73.542c-1.786-25.783-14.875-50.784-37.853-72.302
			c-23.348-21.863-57.059-40.125-97.488-52.814c-0.495-0.155-1-0.23-1.497-0.23c-1.805,0-3.521,0.981-4.409,2.642
			c-1.133,2.119-0.6,4.744,1.271,6.252c25.815,20.808,43.949,40.588,53.899,58.792c8.228,15.051,10.531,28.801,6.664,39.762
			c-5.818,16.49-25.702,26.733-51.891,26.733c-30.55,0-62.072-13.658-84.321-36.534c-25.303-26.016-38.039-62.737-36.832-106.194
			c0.05-1.784-0.855-3.459-2.375-4.396C214.806,167.749,213.896,167.5,212.985,167.5L212.985,167.5z"/>
	</g>
	<g>
		<path fill="#999999" d="M235.227,442.751c-0.544,0-1.09-0.178-1.542-0.533c-0.887-0.695-1.199-1.9-0.76-2.94
			c23.041-54.529,64.943-73.878,93.825-73.878c17.725,0,30.991,7.426,33.8,18.918c4.209,17.218-14.545,38.102-51.458,57.295
			c-0.366,0.19-0.762,0.283-1.153,0.283c-0.738,0-1.463-0.329-1.95-0.938c-0.747-0.931-0.73-2.26,0.037-3.172
			c7.742-9.207,11.036-16.951,9.038-21.244c-1.777-3.817-7.709-4.387-11.087-4.387c-13.013,0-37.517,7.907-67.255,30.098
			C236.278,442.586,235.752,442.751,235.227,442.751L235.227,442.751z"/>
		<path fill="#1A1A1A" d="M326.75,367.9c37.336,0,53.89,33.689-18.812,71.494c16.161-19.219,11.804-29.74-3.963-29.74
			c-15.111,0-40.7,9.664-68.749,30.595C257.472,387.603,298.19,367.9,326.75,367.9L326.75,367.9z M326.75,362.9
			c-16.826,0-34.933,6.154-50.986,17.329c-19.096,13.292-34.706,33.375-45.143,58.075c-0.879,2.079-0.255,4.489,1.521,5.882
			c0.904,0.709,1.994,1.064,3.084,1.064c1.051,0,2.103-0.33,2.99-0.993c29.279-21.85,53.723-29.602,65.759-29.602
			c4.665,0,7.963,1.1,8.821,2.943c1.195,2.567-0.459,8.795-8.686,18.579c-1.535,1.826-1.566,4.482-0.074,6.345
			c0.976,1.218,2.425,1.873,3.904,1.873c0.781,0,1.571-0.183,2.304-0.564c19.642-10.213,34.146-20.769,43.112-31.371
			c10.672-12.622,11.123-22.593,9.621-28.735c-1.599-6.54-6.089-11.956-12.985-15.662C343.708,364.686,335.671,362.9,326.75,362.9
			L326.75,362.9z"/>
	</g>
	<g>
		<path fill="#CCCCCC" d="M347.207,296.68c-8.154,0-29.566-2.205-52.245-22.628c-22.985-20.699-40.444-53.502-51.89-97.499
			c-0.206-0.794-0.01-1.641,0.526-2.261c0.477-0.553,1.169-0.869,1.891-0.869c0.089,0,0.177,0.004,0.266,0.014
			c45.006,4.795,74.038,25.801,90.468,42.579c18.516,18.907,30.441,42.624,30.386,60.418c-0.04,11.791-5.432,19.09-14.795,20.026
			C350.344,296.605,348.794,296.68,347.207,296.68L347.207,296.68z"/>
		<path fill="#1A1A1A" d="M245.492,175.922c104.362,11.12,140.29,114.627,106.073,118.049c-1.345,0.134-2.8,0.209-4.357,0.209
			C322.202,294.18,271.26,274.968,245.492,175.922L245.492,175.922z M245.492,170.922c-1.446,0-2.832,0.627-3.788,1.736
			c-1.071,1.243-1.464,2.934-1.051,4.522c11.572,44.479,29.281,77.696,52.636,98.728c23.325,21.004,45.477,23.271,53.918,23.271
			c1.672,0,3.305-0.079,4.855-0.234c10.631-1.063,17.003-9.477,17.045-22.505c0.06-18.417-12.147-42.822-31.099-62.176
			c-16.716-17.07-46.244-38.441-91.988-43.315C245.845,170.931,245.668,170.922,245.492,170.922L245.492,170.922z"/>
	</g>
</g>
<g id="border">
	<path fill="#FBB03B" d="M495,0c55.229,0,100,44.771,100,100v395c0,55.229-44.771,100-100,100H100C44.771,595,0,550.229,0,495V100
		C0,44.771,44.771,0,100,0H495L495,0z M495,20H100c-44.112,0-80,35.888-80,80v395c0,44.112,35.888,80,80,80h395
		c44.112,0,80-35.888,80-80V100C575,55.888,539.112,20,495,20L495,20z"/>
	<path fill="none" stroke="#B2B2B2" stroke-width="3" d="M562,492.81c0,38.213-31.096,69.19-69.453,69.19H102.453
		C64.095,562,33,531.022,33,492.81V104.19C33,65.978,64.095,35,102.453,35h390.094C530.904,35,562,65.978,562,104.19V492.81z"/>
	<polygon fill="#FFFFFF" points="505.407,79.146 408.102,80.309 505.145,81.24 467.91,103.115 507.326,83.16 508.401,186.893 
		509.596,83.334 546.569,128.714 511.341,81.676 584.268,80.542 512.388,79.582 550.291,57.037 510.032,77.487 508.867,5.607 
		507.501,77.138 478.092,43.016 	"/>
</g>
</svg>
